<?xml version="1.0" encoding="utf-8"?>
<svg width="34px" height="40px" viewBox="0 0 34 40" version="1.1" xmlns:xlink="http://www.w3.org/1999/xlink" xmlns="http://www.w3.org/2000/svg">
  <g id="Group-6" transform="translate(0.5999756 0.6000061)">
    <g id="diamond">
      <path d="M0.311929 8.5857L15.2335 24.1685C15.651 24.6201 16.3427 24.6213 16.7661 24.1685L31.6877 8.5857C32.1066 8.14859 32.1016 7.44181 31.6877 7.00996L25.2877 0.326318C25.0876 0.117412 24.8163 0 24.5335 0L7.46623 0C7.18327 0 6.91197 0.117412 6.712 0.326318L0.312 7.00996C-0.0998176 7.43966 -0.108138 8.14732 0.311929 8.5857ZM21.0712 8.9118L28.3584 8.9118L18.1564 19.5658L21.0712 8.9118ZM15.9998 19.3384L13.1472 8.9118L18.8526 8.9118L15.9998 19.3384ZM13.7261 6.68387L15.9998 3.1223L18.2735 6.68387L13.7261 6.68387ZM10.9284 8.9118L13.8433 19.5658L3.64125 8.9118L10.9284 8.9118ZM28.3584 6.68387L20.8375 6.68387L17.9929 2.22801L24.0916 2.22801L28.3584 6.68387ZM7.90805 2.22801L14.0067 2.22801L11.1622 6.68387L3.64125 6.68387L7.90805 2.22801Z" transform="translate(0 13.492353)" id="Shape" fill="#FF6F00" stroke="#202020" stroke-width="1.2" />
      <path d="M0 1.11397L0 5.23802C0 5.85322 0.477598 6.35198 1.0667 6.35198C1.65581 6.35198 2.1334 5.85322 2.1334 5.23802L2.1334 1.11397C2.1334 0.49876 1.65581 0 1.0667 0C0.477598 0 2.02117e-15 0.49876 2.02117e-15 1.11397L0 1.11397Z" transform="translate(14.933137 0)" id="Path" fill="#FF6F00" stroke="#202020" stroke-width="1.2" />
      <path d="M0.533545 0.149442C0.0233066 0.457045 -0.15149 1.13835 0.143133 1.67112L2.11767 5.24264C2.41314 5.77712 3.06604 5.95707 3.57478 5.65035C4.08502 5.34275 4.25982 4.66145 3.9652 4.12868L1.99066 0.557153C1.69618 0.0243062 1.04371 -0.158161 0.533545 0.149442L0.533545 0.149442Z" transform="translate(3.2786584 3.4094563)" id="Path" fill="#FF6F00" stroke="#202020" stroke-width="1.2" />
      <path d="M0.533545 5.65039C1.04151 5.95673 1.69483 5.77775 1.99066 5.24267L3.9652 1.67115C4.25982 1.13838 4.08502 0.457078 3.57478 0.149475C3.06454 -0.158203 2.41222 0.0243392 2.11767 0.557186L0.143133 4.12871C-0.15149 4.66148 0.0233066 5.34278 0.533545 5.65039L0.533545 5.65039Z" transform="translate(24.61269 3.4094975)" id="Path" fill="#FF6F00" stroke="#202020" stroke-width="1.2" />
    </g>
  </g>
</svg>