<?xml version="1.0" encoding="utf-8"?>
<svg width="32px" height="32px" viewBox="0 0 32 32" version="1.1" xmlns:xlink="http://www.w3.org/1999/xlink" xmlns="http://www.w3.org/2000/svg">
  <g id="Group-6">
    <g id="eye">
      <path d="M31.8137 8.02132C29.6919 5.42108 27.218 3.40515 24.4607 2.02721C21.8049 0.700245 18.9993 0.0188725 16.1201 0.00073531C16.0801 0 16.04 0 16 0C15.96 0 15.9199 0 15.8799 0.00073531C13.0007 0.0188725 10.1951 0.700245 7.53932 2.02721C4.78199 3.40515 2.30812 5.42108 0.186292 8.02059C0.0625124 8.14314 -0.000719951 8.30613 1.24742e-05 8.47059C-0.000719951 8.63505 0.0625124 8.79804 0.186292 8.92059C2.30812 11.5201 4.78199 13.536 7.53932 14.914C10.1951 16.2409 13.0007 16.9223 15.8799 16.9404C15.9199 16.9412 15.96 16.9412 16 16.9412C16.04 16.9412 16.0801 16.9412 16.1201 16.9404C18.9993 16.9223 21.8049 16.2409 24.4607 14.914C27.2268 13.5324 29.7075 11.5074 31.8337 8.89534C31.9382 8.78113 32 8.62941 32 8.46814C32 8.29608 31.9307 8.13677 31.8137 8.02132ZM8.0962 13.7907C5.62135 12.5539 3.3838 10.7657 1.44069 8.47059C3.3838 6.17549 5.62135 4.38725 8.0962 3.15049C8.82496 2.78652 9.56568 2.47476 10.3162 2.21495C8.62501 3.76544 7.56251 5.99583 7.56251 8.47059C7.56251 10.9453 8.62501 13.1757 10.3162 14.7262C9.56568 14.4664 8.82496 14.1547 8.0962 13.7907L8.0962 13.7907ZM16 15.6863C12.0369 15.6863 8.81251 12.4493 8.81251 8.47059C8.81251 4.49191 12.0369 1.2549 16 1.2549C19.9631 1.2549 23.1875 4.49191 23.1875 8.47059C23.1875 12.4493 19.9631 15.6863 16 15.6863ZM23.9038 13.7907C23.1751 14.1547 22.4343 14.4664 21.6838 14.7262C23.375 13.1757 24.4375 10.9453 24.4375 8.47059C24.4375 5.99583 23.375 3.76544 21.6838 2.21495C22.4343 2.47476 23.1751 2.78652 23.9038 3.15049C26.3787 4.38725 28.6162 6.17549 30.5593 8.47059C28.6162 10.7657 26.3787 12.5539 23.9038 13.7907L23.9038 13.7907Z" transform="translate(0 7.529412)" id="Shape" fill="#FF6F00" stroke="none" />
      <path d="M3.4375 6.90196C1.54199 6.90196 0 5.35392 0 3.45098C0 1.54804 1.54199 0 3.4375 0C5.33301 0 6.875 1.54804 6.875 3.45098C6.875 5.35392 5.33301 6.90196 3.4375 6.90196ZM3.4375 1.2549C2.2312 1.2549 1.25 2.23995 1.25 3.45098C1.25 4.66201 2.2312 5.64706 3.4375 5.64706C4.6438 5.64706 5.625 4.66201 5.625 3.45098C5.625 2.23995 4.6438 1.2549 3.4375 1.2549Z" transform="translate(12.562508 12.54902)" id="Shape" fill="#FF6F00" stroke="none" />
      <path d="M0.625 3.76471C0.279785 3.76471 0 3.48382 0 3.13725L0 0.627451C0 0.281127 0.279785 0 0.625 0C0.970215 0 1.25 0.281127 1.25 0.627451L1.25 3.13725C1.25 3.48382 0.970215 3.76471 0.625 3.76471Z" transform="translate(15.375007 25.72255)" id="Path" fill="#FF6F00" stroke="none" />
      <path d="M2.39288 3.02956C2.23273 3.02956 2.07281 2.96829 1.95074 2.84574L0.182922 1.07123C-0.0609741 0.826134 -0.0609741 0.42883 0.182922 0.183732C0.427063 -0.0611213 0.822815 -0.0613664 1.06696 0.183732L2.83478 1.95849C3.07892 2.20358 3.07892 2.60089 2.83478 2.84574C2.71271 2.96829 2.55279 3.02956 2.39288 3.02956Z" transform="translate(18.241156 25.722641)" id="Path" fill="#FF6F00" stroke="none" />
      <path d="M0.624817 3.02947C0.464905 3.02947 0.304993 2.9682 0.182922 2.84565C-0.0609741 2.6008 -0.0609741 2.20349 0.182922 1.95839L1.95074 0.18364C2.19513 -0.0612132 2.59064 -0.0612132 2.83478 0.18364C3.07867 0.428738 3.07867 0.826042 2.83478 1.07114L1.06696 2.84565C0.944885 2.9682 0.784973 3.02947 0.624817 3.02947Z" transform="translate(10.7411585 25.722733)" id="Path" fill="#FF6F00" stroke="none" />
      <path d="M0.625 3.76471C0.279785 3.76471 0 3.48382 0 3.13725L0 0.627451C0 0.281127 0.279785 0 0.625 0C0.970215 0 1.25 0.281127 1.25 0.627451L1.25 3.13725C1.25 3.48382 0.970215 3.76471 0.625 3.76471Z" transform="translate(15.375007 2.5068626)" id="Path" fill="#FF6F00" stroke="none" />
      <path d="M2.39288 3.02941C2.23273 3.02941 2.07281 2.96838 1.95074 2.84583L0.182922 1.07108C-0.0609741 0.82598 -0.0609741 0.428676 0.182922 0.183824C0.427063 -0.0612745 0.822815 -0.0612745 1.06696 0.183824L2.83478 1.95833C3.07892 2.20343 3.07892 2.60074 2.83478 2.84583C2.71271 2.96814 2.55279 3.02941 2.39288 3.02941Z" transform="translate(10.7411585 3.2421567)" id="Path" fill="#FF6F00" stroke="none" />
      <path d="M0.624817 3.02941C0.464905 3.02941 0.304993 2.96838 0.182922 2.84583C-0.0609741 2.60074 -0.0609741 2.20343 0.182922 1.95833L1.95074 0.183824C2.19488 -0.0612745 2.59064 -0.0612745 2.83478 0.183824C3.07892 0.428676 3.07867 0.82598 2.83478 1.07108L1.06696 2.84583C0.944885 2.96814 0.784973 3.02941 0.624817 3.02941Z" transform="translate(18.241156 3.2421567)" id="Path" fill="#FF6F00" stroke="none" />
      <path d="M0.625244 1.2549C0.280273 1.2549 0 0.97402 0 0.627451C0 0.280882 0.279541 0 0.624756 0L0.625244 0C0.970459 0 1.25024 0.280882 1.25024 0.627451C1.25024 0.97402 0.970459 1.2549 0.625244 1.2549Z" transform="translate(15.375983 0)" id="Path" fill="#FF6F00" stroke="none" />
      <path d="M0.625244 1.2549C0.280273 1.2549 0 0.97402 0 0.627451C0 0.280882 0.279541 0 0.624756 0L0.625244 0C0.970459 0 1.25024 0.280882 1.25024 0.627451C1.25024 0.97402 0.970459 1.2549 0.625244 1.2549Z" transform="translate(15.375983 30.745098)" id="Path" fill="#FF6F00" stroke="none" />
    </g>
  </g>
</svg>