<?xml version="1.0" encoding="utf-8"?>
<svg width="6px" height="12px" viewBox="0 0 6 12" version="1.1" xmlns:xlink="http://www.w3.org/1999/xlink" xmlns="http://www.w3.org/2000/svg">
  <path d="M0.191577 6.3912L1.49357 6.3912L1.49357 11.8065C1.49357 11.9134 1.57932 12 1.68515 12L3.89273 12C3.99856 12 4.08431 11.9134 4.08431 11.8065L4.08431 6.41671L5.58106 6.41671C5.67838 6.41671 5.76026 6.34293 5.77137 6.24527L5.9987 4.25164C6.00494 4.19679 5.98774 4.14186 5.95142 4.10071C5.91505 4.05952 5.86302 4.03595 5.80842 4.03595L4.08438 4.03595L4.08438 2.78625C4.08438 2.40952 4.28516 2.21849 4.68118 2.21849C4.73762 2.21849 5.80842 2.21849 5.80842 2.21849C5.91425 2.21849 6 2.13182 6 2.02494L6 0.194981C6 0.0880645 5.91425 0.00143226 5.80842 0.00143226L4.25493 0.00143226C4.24397 0.000890323 4.21964 0 4.18377 0C3.91422 0 2.9773 0.0534581 2.2372 0.741329C1.41717 1.5036 1.53116 2.4163 1.5584 2.57454L1.5584 4.03591L0.191577 4.03591C0.0857499 4.03591 0 4.12254 0 4.22946L0 6.19761C0 6.30453 0.0857499 6.3912 0.191577 6.3912Z" id="XMLID_835_" fill="#131313" fill-opacity="0.5" stroke="none" />
</svg>