<?xml version="1.0" encoding="utf-8"?>
<svg width="13px" height="12px" viewBox="0 0 13 12" version="1.1" xmlns:xlink="http://www.w3.org/1999/xlink" xmlns="http://www.w3.org/2000/svg">
  <g id="Instagram_New_icon-icons.com_69008" opacity="0.5">
    <path d="M6.00358 0.00142339C6.83392 0.00142339 7.66433 -0.00242036 8.49465 0.00252496C9.27584 0.00718902 10.0095 0.185337 10.6452 0.66024C11.4754 1.28043 11.9002 2.12759 11.9793 3.14983C12.0071 3.5096 11.9984 3.87249 11.9989 4.23395C12.0008 5.63574 11.9997 7.03754 11.9996 8.43935C11.9995 9.01188 11.9199 9.57087 11.6776 10.0944C11.1862 11.1564 10.3289 11.737 9.19787 11.9382C8.96203 11.9801 8.71873 11.9958 8.47881 11.9965C6.82257 12.0014 5.16629 12.0003 3.51003 11.9985C2.64876 11.9977 1.86105 11.7702 1.18979 11.2114C0.507791 10.6438 0.147908 9.90135 0.035959 9.03091C0.0166465 8.88078 0.00482229 8.72851 0.00468167 8.57723C0.00306448 6.83615 -0.00744724 5.09497 0.00961526 3.35406C0.0189434 2.4029 0.335654 1.55957 1.04372 0.89506C1.63106 0.343904 2.34497 0.0559156 3.13832 0.027732C4.09228 -0.00615864 5.04837 0.0197046 6.00354 0.0197046C6.00356 0.0135992 6.00356 0.00750543 6.00358 0.00142339ZM5.99421 10.891C6.79319 10.891 7.59215 10.8942 8.39109 10.8888C8.60003 10.8874 8.81201 10.877 9.01703 10.84C9.80016 10.6984 10.3956 10.3056 10.7076 9.54304C10.8661 9.15568 10.9179 8.74003 10.9246 8.33746C10.9509 6.77569 10.9361 5.21322 10.9342 3.65101C10.934 3.48176 10.9322 3.31063 10.9083 3.14364C10.8009 2.39378 10.4758 1.77917 9.78569 1.40541C9.40051 1.19681 8.98236 1.11804 8.54772 1.1179C6.87392 1.11741 5.20012 1.11692 3.52633 1.11892C3.37506 1.11911 3.22246 1.12748 3.07279 1.14851C2.2203 1.26821 1.59237 1.68835 1.27812 2.51492C1.1513 2.84847 1.11078 3.19798 1.11071 3.55284C1.11046 5.18647 1.10889 6.82006 1.11285 8.45371C1.11333 8.65358 1.12824 8.85631 1.16402 9.0527C1.32272 9.92405 1.8086 10.523 2.6739 10.7638C2.96225 10.844 3.27049 10.8794 3.57064 10.8855C4.37822 10.9017 5.18631 10.891 5.99421 10.891Z" transform="matrix(1 0 0 1 0 6.661338E-16)" id="Shape" fill="#000000" stroke="none" />
    <path d="M6.19044 3.09645C6.18969 4.80477 4.79585 6.19427 3.08707 6.19009C1.37765 6.18596 0.000997162 4.80616 1.06812e-06 3.096C-0.000995026 1.38775 1.39077 -0.00185954 3.10082 3.73949e-06C4.79612 0.00183186 6.1912 1.4 6.19044 3.09645ZM3.0964 5.0748C4.18633 5.07563 5.084 4.17861 5.08212 3.09052C5.08023 2.00998 4.18484 1.1129 3.10378 1.1085C2.01543 1.10409 1.11818 1.99837 1.11587 3.08984C1.11358 4.18287 2.00262 5.07393 3.0964 5.0748Z" transform="translate(2.9021766 2.8844314)" id="Shape" fill="#000000" stroke="none" />
    <path d="M0.690719 1.39867C0.303777 1.39522 -0.00123841 1.08558 3.78063e-06 0.697518C0.00122253 0.305045 0.313891 -0.00267774 0.708648 1.75708e-05C1.0912 0.00266601 1.40294 0.318393 1.40178 0.702018C1.40061 1.09108 1.08307 1.40218 0.690719 1.39867Z" transform="translate(8.516627 2.1091871)" id="Path" fill="#000000" stroke="none" />
  </g>
</svg>