<?xml version="1.0" encoding="utf-8"?>
<svg width="20px" height="20px" viewBox="0 0 20 20" version="1.1" xmlns:xlink="http://www.w3.org/1999/xlink" xmlns="http://www.w3.org/2000/svg">
  <path d="M17.0711 2.92891C15.1823 1.0402 12.6711 0 10 0C7.32891 0 4.8177 1.0402 2.92891 2.92891C1.0402 4.81766 0 7.32891 0 10C0 12.6711 1.0402 15.1823 2.92891 17.0711C4.8177 18.9598 7.32891 20 10 20C12.6711 20 15.1823 18.9598 17.0711 17.0711C18.9598 15.1823 20 12.6711 20 10C20 7.32891 18.9598 4.81766 17.0711 2.92891ZM8.10348 1.37766C7.76805 1.70395 7.40551 2.09277 7.04277 2.54535C6.41551 3.32805 5.8932 4.17047 5.48469 5.05637L2.68937 5.05637C3.93793 3.21594 5.86262 1.87016 8.10348 1.37766ZM2.01934 6.22824L5.02008 6.22824C4.67855 7.2484 4.47988 8.31547 4.42801 9.41406L1.1918 9.41406C1.26645 8.2809 1.55559 7.20555 2.01934 6.22824ZM1.1918 10.5859L4.42801 10.5859C4.47988 11.6845 4.67852 12.7516 5.02008 13.7718L2.01934 13.7718C1.55559 12.7945 1.26645 11.7191 1.1918 10.5859ZM2.68937 14.9436L5.48469 14.9436C5.8932 15.8295 6.41551 16.672 7.04277 17.4546C7.40547 17.9072 7.76801 18.2961 8.10348 18.6223C5.86262 18.1298 3.93793 16.7841 2.68937 14.9436ZM9.41406 18.2346C8.99676 17.8748 8.47789 17.3715 7.95723 16.7218C7.50187 16.1536 7.11191 15.5603 6.78703 14.9436L9.41406 14.9436L9.41406 18.2346ZM9.41406 13.7718L6.25852 13.7718C5.87762 12.763 5.65824 11.699 5.60137 10.5859L9.41406 10.5859L9.41406 13.7718ZM9.41406 9.41406L5.60137 9.41406C5.65828 8.30117 5.87793 7.23723 6.25898 6.22824L9.41406 6.22824L9.41406 9.41406ZM9.41406 5.05637L6.78703 5.05637C7.10523 4.45238 7.48602 3.87078 7.92934 3.31313C8.45664 2.64988 8.98777 2.13453 9.41406 1.76703L9.41406 5.05637ZM18.8082 9.41406L15.572 9.41406C15.5201 8.31547 15.3215 7.2484 14.9799 6.22824L17.9807 6.22824C18.4444 7.20555 18.7336 8.2809 18.8082 9.41406ZM17.3106 5.05637L14.5153 5.05637C14.1068 4.17051 13.5845 3.32805 12.9572 2.54535C12.5945 2.09277 12.232 1.70395 11.8965 1.37766C14.1374 1.87016 16.0621 3.21594 17.3106 5.05637ZM10.5859 1.76539C11.0032 2.1252 11.5221 2.62852 12.0428 3.2782C12.4981 3.84641 12.8881 4.43973 13.213 5.05637L10.5859 5.05637L10.5859 1.76539ZM10.5859 6.22824L13.7415 6.22824C14.1224 7.23703 14.3418 8.30102 14.3986 9.41406L10.5859 9.41406L10.5859 6.22824ZM10.5859 10.5859L14.3986 10.5859C14.3417 11.6988 14.122 12.7628 13.741 13.7718L10.5859 13.7718L10.5859 10.5859ZM10.5859 18.2329L10.5859 14.9436L13.213 14.9436C12.8948 15.5476 12.514 16.1292 12.0707 16.6868C11.5434 17.3501 11.0123 17.8654 10.5859 18.2329ZM11.8966 18.6223C12.232 18.2961 12.5945 17.9072 12.9573 17.4546C13.5845 16.672 14.1068 15.8295 14.5154 14.9436L17.3107 14.9436C16.0621 16.7841 14.1374 18.1298 11.8966 18.6223ZM17.9807 13.7718L14.9799 13.7718C15.3214 12.7516 15.5201 11.6845 15.572 10.5859L18.8082 10.5859C18.7336 11.7191 18.4444 12.7945 17.9807 13.7718Z" id="Shape" fill="#C2C2C2" stroke="none" />
</svg>