<?xml version="1.0" encoding="utf-8"?>
<svg width="14px" height="14px" viewBox="0 0 14 14" version="1.1" xmlns:xlink="http://www.w3.org/1999/xlink" xmlns="http://www.w3.org/2000/svg">
  <path d="M2.655 1.5C2.7 2.1675 2.8125 2.82 2.9925 3.4425L2.0925 4.3425C1.785 3.4425 1.59 2.49 1.5225 1.5L2.655 1.5M10.05 10.5149C10.6875 10.6949 11.34 10.8074 12 10.8524L12 11.9699C11.01 11.9024 10.0575 11.7074 9.15 11.4074L10.05 10.5149M3.375 0L0.75 0C0.3375 0 0 0.3375 0 0.75C0 7.7925 5.7075 13.5 12.75 13.5C13.1625 13.5 13.5 13.1625 13.5 12.75L13.5 10.1325C13.5 9.72 13.1625 9.3825 12.75 9.3825C11.82 9.3825 10.9125 9.2325 10.0725 8.955C9.9975 8.925 9.915 8.9175 9.84 8.9175C9.645 8.9175 9.4575 8.9925 9.3075 9.135L7.6575 10.785C5.535 9.6975 3.795 7.965 2.715 5.8425L4.365 4.1925C4.575 3.9825 4.635 3.69 4.5525 3.4275C4.275 2.5875 4.125 1.6875 4.125 0.75C4.125 0.3375 3.7875 0 3.375 0Z" id="Shape" fill="#595959" stroke="none" />
</svg>