<?xml version="1.0" encoding="utf-8"?>
<svg width="33px" height="33px" viewBox="0 0 33 33" version="1.1" xmlns:xlink="http://www.w3.org/1999/xlink" xmlns="http://www.w3.org/2000/svg">
  <g id="target-(1)" transform="translate(0.4500122 0.4500122)">
    <path d="M16.5506 1.10134C14.0785 1.10134 11.6416 1.69692 9.45754 2.82883L6.90385 0.275016C6.67799 0.0490348 6.35257 -0.0464642 6.04042 0.021499C5.72826 0.0894623 5.47205 0.311563 5.36047 0.610952L4.07092 4.07101L0.610927 5.36049C0.311538 5.47208 0.0894375 5.72828 0.0214743 6.04044C-0.0464264 6.3526 0.04901 6.67795 0.274991 6.90387L2.82874 9.45769C1.69684 11.6417 1.10125 14.0786 1.10125 16.5506C1.10125 25.0695 8.03175 32 16.5506 32C25.0694 32 32 25.0695 32 16.5506C32 8.03184 25.0694 1.10134 16.5506 1.10134ZM16.5506 21.6353C19.3543 21.6353 21.6353 19.3544 21.6353 16.5507C21.6353 13.747 19.3543 11.4661 16.5506 11.4661C15.4872 11.4661 14.4995 11.7947 13.6825 12.355L11.3221 9.99464C12.7572 8.8479 14.5751 8.16107 16.5506 8.16107C21.1766 8.16107 24.9402 11.9246 24.9402 16.5507C24.9402 21.1767 21.1766 24.9402 16.5506 24.9402C11.9246 24.9402 8.16107 21.1767 8.16107 16.5507C8.16107 14.5752 8.84784 12.7572 9.99458 11.3222L12.355 13.6826C11.7947 14.4996 11.466 15.4873 11.466 16.5507C11.466 19.3543 13.747 21.6353 16.5506 21.6353L16.5506 21.6353ZM17.2143 15.8869L15.0465 13.7191C15.4954 13.4797 16.0073 13.3434 16.5505 13.3434C18.319 13.3434 19.7578 14.7822 19.7578 16.5506C19.7578 18.319 18.319 19.7578 16.5505 19.7578C14.7821 19.7578 13.3434 18.319 13.3434 16.5506C13.3434 16.0073 13.4796 15.4956 13.719 15.0466L15.8868 17.2144C16.0701 17.3977 16.3104 17.4893 16.5505 17.4893C16.7908 17.4893 17.031 17.3976 17.2143 17.2144C17.5809 16.8479 17.5809 16.2535 17.2143 15.8869L17.2143 15.8869ZM6.60949 2.63568L9.76834 5.7946L9.36225 8.03469L5.89099 4.5635L6.60949 2.63568ZM2.63568 6.60949L4.5635 5.89105L8.03475 9.36225L5.7946 9.7684L2.63568 6.60949ZM16.5506 30.1226C9.06704 30.1226 2.9787 24.0342 2.9787 16.5506C2.9787 14.5806 3.40938 12.6364 4.23164 10.8605L4.81458 11.4434C4.99219 11.6211 5.23162 11.7184 5.47832 11.7184C5.53395 11.7184 5.58996 11.7135 5.64579 11.7034L7.71441 11.3284C6.80611 12.8595 6.28368 14.645 6.28368 16.5506C6.28368 22.2119 10.8894 26.8177 16.5506 26.8177C22.2119 26.8177 26.8177 22.2119 26.8177 16.5506C26.8177 10.8894 22.2119 6.28362 16.5506 6.28362C14.645 6.28362 12.8595 6.80611 11.3284 7.71441L11.7034 5.64579C11.7583 5.34289 11.6612 5.03224 11.4435 4.81458L10.8606 4.23164C12.6364 3.40938 14.5806 2.9787 16.5507 2.9787C24.0343 2.9787 30.1226 9.06704 30.1226 16.5506C30.1226 24.0342 24.0342 30.1226 16.5506 30.1226Z" id="Shape" fill="#FF6F00" stroke="#202020" stroke-width="0.9" />
  </g>
</svg>